<svg xmlns="http://www.w3.org/2000/svg" data-name="Capa 1" viewBox="0 0 110 137.5" x="0px" y="0px"><title>Mesa de trabajo 1 copia 80</title><path d="M39.5,75.33l2.91,2.91L77.93,42.72,81.68,39l5.72,5.72a2.06,2.06,0,0,0,2.91,0l8.24-8.24a8.23,8.23,0,0,0,0-11.64L85.19,11.45a8.23,8.23,0,0,0-11.64,0L14.61,70.39A2,2,0,0,0,14,71.48l-5,27.05a2.06,2.06,0,0,0,2,2.43l.37,0,27.05-5a2,2,0,0,0,1.09-.57L83.29,51.71l-1.46-1.45L80.38,48.8,44,85.17,32.15,82.7,30.28,74a2.06,2.06,0,0,0-1.59-1.58l-8.44-1.8L66.76,24.05l3.13,3.13,1.39,1.39-.44.44L37.48,62.37l2.91,2.91L72.82,32.85l1.37-1.37,4.58,4.58-2.83,2.82ZM69.67,21.14l6.79-6.78a4.1,4.1,0,0,1,5.82,0L95.64,27.72a4.1,4.1,0,0,1,0,5.82l-6.78,6.79Zm-56,75.2,1.62-8.82,7.2,7.2ZM26.53,76.12l1.88,8.75A2,2,0,0,0,30,86.45l10.54,2.19L37.15,92,27.4,93.82,16.18,82.6l1.53-8.36Z"/></svg>